<?xml version="1.0" standalone="no"?><!DOCTYPE svg PUBLIC "-//W3C//DTD SVG 1.1//EN" "http://www.w3.org/Graphics/SVG/1.1/DTD/svg11.dtd"><svg t="1534249144801" class="icon" style="" viewBox="0 0 1024 1024" version="1.1" xmlns="http://www.w3.org/2000/svg" p-id="726" xmlns:xlink="http://www.w3.org/1999/xlink" width="200" height="200"><defs><style type="text/css"></style></defs><path d="M123.37152 667.037696C167.892992 419.72224 282.3424 327.937024 417.789952 291.108864 587.305984 244.87936 735.27296 278.029312 878.247936 212.145152 964.636672 172.341248 961.072128 243.787776 959.552512 255.26784 937.677824 420.642816 848.28672 578.176 657.204224 652.955648 448.795648 734.475264 243.105792 583.539712 93.894656 820.977664 92.79488 822.723584 90.857472 823.799808 88.758272 823.799808L69.921792 823.799808C65.431552 823.799808 62.528512 819.15904 64.543744 815.234048 120.52992 706.359296 201.245696 612.619264 304.28672 537.885696 397.139968 470.618112 508.224512 418.390016 635.661312 376.764416 645.982208 373.392384 641.627136 358.253568 631.031808 360.672256 533.316608 382.964736 445.014016 412.086272 363.047936 457.83552 277.390336 505.637888 198.597632 571.705344 123.37152 667.037696L123.37152 667.037696 123.37152 667.037696Z" p-id="727" fill="rgba(255, 255, 255, 0.6)"></path></svg>